# xmcd
#
# Track frame offsets:
#	150
#	14649
#	27464
#	42193
#	55496
#	66369
#	86210
#	95860
#	112715
#	128536
#	144323
#	155261
#
# Disc length: 2169 seconds
#
# Revision: 1
# Processed by: cddbd v1.5.2PL0 Copyright (c) Steve Scherf et al.
# Submitted via: audiograbber 1.82.02
#
DISCID=a208770c
DTITLE=Varius -  Νησιώτικα παραδοσιακά - Νο 1
DYEAR=1900
DGENRE=Νησιώτικα
TTITLE0=Μεσ του Αιγαίου - Αιμιλία Χατζηδάκη
TTITLE1=Η βράκα - Αιμιλία Χατζηδάκη
TTITLE2=Αμοργιανό είν το νερό - Ειρήνη Καβακοπούλου
TTITLE3=Εγώ είμαι ενός ψαρά παιδί - Νικ.&Ελισ. Ροδίτη
TTITLE4=Περήφανα νησιά μου - Θάλεια Σπανού
TTITLE5=Μέρα μέρωσε - (Ροδίτικος ορχηστρικό)
TTITLE6=Ο μηχανικός - ’ννα Καραμπεσίνη and Έφη Σαρρή
TTITLE7=Έλα μπρόβαλε - ’ννα Καραμπεσίνη and Έφη Σαρρή
TTITLE8=Μπρατσέρα - Αιμιλία Χατζηδάκη
TTITLE9=Την θάλασσα την αγαπώ - Ειρήνη Καβακοπούλου
TTITLE10=Εστόλισαν το Σπερβέρι - ’ννα Καραμπεσίνη and Έφη Σαρρή
TTITLE11=Θοδωρής - ορχηστρικό
EXTD=Σειρά 10 CD
EXTT0=
EXTT1=
EXTT2=
EXTT3=
EXTT4=
EXTT5=
EXTT6=
EXTT7=
EXTT8=
EXTT9=
EXTT10=
EXTT11=
PLAYORDER=
